#N canvas 365 51 593 582 10;
#N canvas 123 43 1157 617 arduino_c 0;
#X text 11 6 2) Serial connection;
#X msg 402 207 close;
#X msg 23 27 devices;
#X msg 65 128 version;
#N canvas 132 66 546 358 ver 0;
#X obj 250 100 cnv 15 100 60 empty \$0-version_cnv empty 20 12 0 14
-233017 -66577 0;
#X obj 23 201 send \$0-version_cnv;
#X msg 23 176 label \$1;
#X obj 48 147 symbol;
#X obj 38 121 loadbang;
#X msg 107 120 bang;
#X obj 23 6 receive \$0-arduino-info;
#X obj 104 49 route -1;
#X obj 23 93 includes/agop.symbol2list;
#X obj 23 29 route firmware;
#X msg 104 70 connection closed;
#X obj 213 276 print ARDUINO_INFO;
#X obj 157 225 r \$0-arduino-out;
#X obj 213 252 r \$0-arduino-info;
#X obj 157 305 print ARDUINO_OUT;
#X obj 249 54 s connected;
#X connect 2 0 1 0;
#X connect 3 0 2 0;
#X connect 4 0 3 0;
#X connect 5 0 3 0;
#X connect 6 0 9 0;
#X connect 7 0 10 0;
#X connect 8 0 2 0;
#X connect 9 0 8 0;
#X connect 9 0 15 0;
#X connect 9 1 7 0;
#X connect 10 0 8 0;
#X connect 13 0 11 0;
#X coords 0 -1 1 1 300 100 2 250 100;
#X restore 145 331 pd ver;
#X text 124 127 <- get protocol version;
#X msg 396 234 firmware;
#X floatatom 35 54 5 0 0 0 - - -, f 5;
#X text 91 61 listed by the 'device' message above;
#X text 90 46 enter the number of your serial device;
#X text 73 52 <-;
#X text 76 28 <- list devices -> check the pd-console output!;
#X text 123 152 <- get firmware specification;
#X text 88 79 <- open serial port to Arduino board;
#X text 92 101 <- close the serial port;
#X obj 21 183 cnv 15 98 21 empty empty empty 20 12 0 14 -261234 -66577
0;
#X obj 21 185 send \$0-arduino;
#X obj 660 212 route analog;
#X obj 1014 252 includes/analog.display;
#X text 1116 248 A0;
#X text 1116 264 A2;
#X text 1116 280 A4;
#X obj 1014 260 includes/analog.display;
#X obj 1014 268 includes/analog.display;
#X obj 1014 276 includes/analog.display;
#X obj 1014 284 includes/analog.display;
#X obj 1014 292 includes/analog.display;
#X text 1116 255 ---A1;
#X text 1116 271 ---A3;
#X text 1116 287 ---A5;
#X obj 658 188 cnv 15 140 21 empty empty empty 20 12 0 14 -203904 -66577
0;
#X obj 660 190 receive \$0-arduino-out;
#X obj 1014 300 includes/analog.display;
#X obj 1014 308 includes/analog.display;
#X obj 1014 316 includes/analog.display;
#X obj 1014 324 includes/analog.display;
#X obj 1014 332 includes/analog.display;
#X obj 1014 340 includes/analog.display;
#X text 1116 296 A6;
#X text 1116 303 ---A7;
#X text 1116 312 A8;
#X text 1116 319 ---A9;
#X text 1116 328 A10;
#X text 1116 335 ---A11;
#X obj 1014 348 includes/analog.display;
#X text 1116 343 A12;
#X obj 1014 356 includes/analog.display;
#X obj 1014 364 includes/analog.display;
#X text 1116 351 ---A13;
#X text 1116 359 A14;
#X text 330 538 <-- COMMAND;
#X obj 214 471 tgl 15 0 empty empty 2 4 -6 1 10 -233017 -1 -1 0 1;
#X obj 229 471 tgl 15 0 empty empty 3 4 -6 1 10 -233017 -1 -1 0 1;
#X obj 244 471 tgl 15 0 empty empty 4 4 -6 1 10 -233017 -1 -1 0 1;
#X obj 259 471 tgl 15 0 empty empty 5 4 -6 1 10 -233017 -1 -1 0 1;
#X obj 184 471 tgl 15 0 empty empty 0 4 -6 1 10 -233017 -1 -1 0 1;
#X obj 199 471 tgl 15 0 empty empty 1 4 -6 1 10 -233017 -1 -1 0 1;
#N canvas 190 217 771 367 analogIns_ 0;
#X obj 30 12 inlet;
#X obj 432 270 outlet;
#X msg 30 34 0 \$1;
#X obj 80 12 inlet;
#X msg 80 34 1 \$1;
#X obj 130 12 inlet;
#X obj 180 12 inlet;
#X obj 230 12 inlet;
#X obj 280 12 inlet;
#X msg 130 34 2 \$1;
#X msg 180 34 3 \$1;
#X msg 230 34 4 \$1;
#X msg 280 34 5 \$1;
#X msg 432 248 set analogIns \$1 \$2 \, bang;
#X obj 320 12 inlet;
#X obj 370 12 inlet;
#X obj 420 12 inlet;
#X obj 470 12 inlet;
#X obj 520 12 inlet;
#X obj 570 12 inlet;
#X msg 320 34 6 \$1;
#X msg 368 33 7 \$1;
#X msg 421 34 8 \$1;
#X msg 470 34 9 \$1;
#X msg 520 34 10 \$1;
#X msg 570 34 11 \$1;
#X obj 610 12 inlet;
#X msg 610 34 12 \$1;
#X obj 650 12 inlet;
#X msg 650 34 13 \$1;
#X obj 690 12 inlet;
#X obj 730 12 inlet;
#X msg 690 34 14 \$1;
#X msg 730 34 15 \$1;
#X obj 770 12 inlet;
#X msg 770 34 16 \$1, f 26;
#X connect 0 0 2 0;
#X connect 2 0 13 0;
#X connect 3 0 4 0;
#X connect 4 0 13 0;
#X connect 5 0 9 0;
#X connect 6 0 10 0;
#X connect 7 0 11 0;
#X connect 8 0 12 0;
#X connect 9 0 13 0;
#X connect 10 0 13 0;
#X connect 11 0 13 0;
#X connect 12 0 13 0;
#X connect 13 0 1 0;
#X connect 14 0 20 0;
#X connect 15 0 21 0;
#X connect 16 0 22 0;
#X connect 17 0 23 0;
#X connect 18 0 24 0;
#X connect 19 0 25 0;
#X connect 20 0 13 0;
#X connect 21 0 13 0;
#X connect 22 0 13 0;
#X connect 23 0 13 0;
#X connect 24 0 13 0;
#X connect 25 0 13 0;
#X connect 26 0 27 0;
#X connect 27 0 13 0;
#X connect 28 0 29 0;
#X connect 29 0 13 0;
#X connect 30 0 32 0;
#X connect 31 0 33 0;
#X connect 32 0 13 0;
#X connect 33 0 13 0;
#X connect 34 0 35 0;
#X restore 209 514 pd analogIns_;
#X msg 233 539 analogIns 15 1;
#X obj 231 562 cnv 15 98 21 empty empty empty 20 12 0 14 -261234 -66577
0;
#X obj 233 564 send \$0-arduino;
#X obj 304 471 tgl 15 0 empty empty 8 4 -6 1 10 -233017 -1 -1 0 1;
#X obj 319 471 tgl 15 0 empty empty 9 4 -6 1 10 -233017 -1 -1 0 1;
#X obj 334 471 tgl 15 0 empty empty 10 4 -6 1 10 -233017 -1 -1 0 1
;
#X obj 349 471 tgl 15 0 empty empty 11 4 -6 1 10 -233017 -1 -1 0 1
;
#X obj 274 471 tgl 15 0 empty empty 6 4 -6 1 10 -233017 -1 -1 0 1;
#X obj 289 471 tgl 15 0 empty empty 7 4 -6 1 10 -233017 -1 -1 0 1;
#X obj 364 471 tgl 15 0 empty empty 12 4 -6 1 10 -233017 -1 -1 0 1
;
#X obj 379 471 tgl 15 0 empty empty 13 4 -6 1 10 -233017 -1 -1 0 1
;
#X obj 394 471 tgl 15 0 empty empty 14 4 -6 1 10 -233017 -1 -1 0 1
;
#X obj 679 412 tgl 15 0 empty empty 8 4 -6 1 10 -233017 -1 -1 0 1;
#X obj 694 412 tgl 15 0 empty empty 9 4 -6 1 10 -233017 -1 -1 0 1;
#X obj 709 412 tgl 15 0 empty empty 10 0 -6 1 10 -233017 -1 -1 1 1
;
#X text 645 473 <-- COMMAND;
#X msg 559 473 digital 10 1;
#N canvas 101 162 791 311 digital______________________________________
0;
#X obj 32 22 inlet;
#X obj 288 262 outlet;
#X obj 288 235 trigger bang anything;
#X obj 288 214 list trim;
#X obj 288 194 list prepend set digital;
#X msg 32 53 0 \$1;
#X obj 68 22 inlet;
#X msg 68 74 1 \$1;
#X obj 104 22 inlet;
#X obj 140 22 inlet;
#X msg 104 53 2 \$1;
#X msg 140 74 3 \$1;
#X obj 176 22 inlet;
#X obj 212 22 inlet;
#X obj 248 22 inlet;
#X obj 284 22 inlet;
#X msg 176 53 4 \$1;
#X msg 212 74 5 \$1;
#X msg 248 53 6 \$1;
#X msg 284 74 7 \$1;
#X obj 320 22 inlet;
#X obj 356 22 inlet;
#X obj 392 22 inlet;
#X obj 428 22 inlet;
#X obj 464 22 inlet;
#X obj 500 22 inlet;
#X obj 536 22 inlet;
#X obj 572 22 inlet;
#X msg 320 53 8 \$1;
#X msg 356 74 9 \$1;
#X msg 392 53 10 \$1;
#X msg 428 74 11 \$1;
#X msg 464 53 12 \$1;
#X msg 500 74 13 \$1;
#X msg 536 53 14 \$1;
#X msg 572 74 15 \$1;
#X obj 608 22 inlet;
#X obj 644 22 inlet;
#X obj 680 22 inlet;
#X obj 716 22 inlet;
#X msg 608 53 16 \$1;
#X msg 644 74 17 \$1;
#X msg 680 53 18 \$1;
#X msg 716 74 19 \$1;
#X connect 0 0 5 0;
#X connect 2 0 1 0;
#X connect 2 1 1 0;
#X connect 3 0 2 0;
#X connect 4 0 3 0;
#X connect 5 0 4 0;
#X connect 6 0 7 0;
#X connect 7 0 4 0;
#X connect 8 0 10 0;
#X connect 9 0 11 0;
#X connect 10 0 4 0;
#X connect 11 0 4 0;
#X connect 12 0 16 0;
#X connect 13 0 17 0;
#X connect 14 0 18 0;
#X connect 15 0 19 0;
#X connect 16 0 4 0;
#X connect 17 0 4 0;
#X connect 18 0 4 0;
#X connect 19 0 4 0;
#X connect 20 0 28 0;
#X connect 21 0 29 0;
#X connect 22 0 30 0;
#X connect 23 0 31 0;
#X connect 24 0 32 0;
#X connect 25 0 33 0;
#X connect 26 0 34 0;
#X connect 27 0 35 0;
#X connect 28 0 4 0;
#X connect 29 0 4 0;
#X connect 30 0 4 0;
#X connect 31 0 4 0;
#X connect 32 0 4 0;
#X connect 33 0 4 0;
#X connect 34 0 4 0;
#X connect 35 0 4 0;
#X connect 36 0 40 0;
#X connect 37 0 41 0;
#X connect 38 0 42 0;
#X connect 39 0 43 0;
#X connect 40 0 4 0;
#X connect 41 0 4 0;
#X connect 42 0 4 0;
#X connect 43 0 4 0;
#X restore 559 446 pd digital______________________________________
;
#X obj 557 500 cnv 15 98 21 empty empty empty 20 12 0 14 -261234 -66577
0;
#X obj 559 502 send \$0-arduino;
#X obj 562 325 tgl 15 0 empty empty empty 17 7 0 10 -262144 -1 -1 0
1;
#X obj 566 361 - 1;
#X obj 951 123 send \$0-arduino-info;
#X text 977 81 here's our;
#X text 976 93 Arduino object;
#X text 961 89 <-;
#X obj 898 145 cnv 15 122 21 empty empty empty 20 12 0 14 -203904 -66577
0;
#X obj 900 147 send \$0-arduino-out;
#X obj 898 39 cnv 15 116 21 empty empty empty 20 12 0 14 -261234 -66577
0;
#X obj 900 41 receive \$0-arduino;
#X obj 898 88 cnv 15 62 21 empty empty empty 20 12 0 14 -262144 -66577
0;
#X obj 900 90 arduino 1;
#X obj 678 342 s A0;
#X obj 678 364 s A1;
#X obj 712 342 s A2;
#X obj 712 342 s A2;
#X obj 713 364 s A3;
#X obj 747 342 s A4;
#X obj 749 363 s A5;
#X obj 782 342 s A6;
#X obj 783 364 s A7;
#X obj 816 342 s A8;
#X obj 816 363 s A9;
#X obj 850 363 s A11;
#X obj 850 342 s A10;
#X obj 891 343 s A12;
#X obj 891 363 s A13;
#X obj 933 343 s A14;
#X msg 401 176 open 1;
#X obj 794 392 loadbang;
#X msg 748 393 1;
#X obj 541 261 r connected;
#X obj 567 291 t b;
#X obj 410 471 tgl 15 0 empty empty 15 4 -6 1 10 -233017 -1 -1 0 1
;
#X obj 1014 372 includes/analog.display;
#X text 1116 367 ---A15;
#X obj 931 363 s A15;
#X obj 676 236 route 0 1 2 3 4 5 6 7 8 9 10 11 12 13 14 15;
#N canvas 377 166 668 357 button 0;
#X obj 379 118 tgl 15 0 empty empty empty 17 7 0 10 -262144 -1 -1 0
1;
#X obj 38 15 r A1;
#X obj 360 70 > 0.72;
#X obj 260 90 > 0.6;
#X obj 300 90 < 0.7;
#X obj 287 149 &&;
#X obj 295 199 tgl 15 0 empty empty empty 17 7 0 10 -262144 -1 -1 0
1;
#X obj 155 101 &&;
#X obj 161 198 tgl 15 0 empty empty empty 17 7 0 10 -262144 -1 -1 0
1;
#X obj 56 182 tgl 15 0 empty empty empty 17 7 0 10 -262144 -1 -1 0
1;
#X obj -13 195 tgl 15 0 empty empty empty 17 7 0 10 -262144 -1 -1 0
1;
#X obj -9 120 < 0.2;
#X obj 131 81 > 0.4;
#X obj 171 81 < 0.6;
#X obj 68 162 &&;
#X obj -15 144 &&;
#X obj -75 297 s revOn;
#X obj 427 236 s distOn;
#X obj 296 287 s granOn;
#X obj 90 123 < 0.35;
#X obj 424 172 select 1;
#X obj 425 213 counter 0 1;
#X obj 424 192 delay 100 1 msec;
#X obj 294 222 select 1;
#X obj 295 263 counter 0 1;
#X obj 294 242 delay 100 1 msec;
#X obj 173 222 select 1;
#X obj 174 263 counter 0 1;
#X obj 173 242 delay 100 1 msec;
#X obj 43 222 select 1;
#X obj 43 252 delay 100 1 msec;
#X obj -77 222 select 1;
#X obj -76 273 counter 0 1;
#X obj -77 252 delay 100 1 msec;
#X obj 45 44 f;
#X obj -65 115 > 0.11;
#X obj 33 120 > 0.21;
#X obj 174 286 s filterOn;
#X obj 42 297 s newM;
#X floatatom 121 303 5 0 0 0 - - -, f 5;
#X obj 44 273 counter 0 3;
#X connect 0 0 20 0;
#X connect 1 0 2 0;
#X connect 1 0 34 0;
#X connect 1 0 11 0;
#X connect 1 0 35 0;
#X connect 2 0 0 0;
#X connect 3 0 5 0;
#X connect 4 0 5 1;
#X connect 5 0 6 0;
#X connect 6 0 23 0;
#X connect 7 0 8 0;
#X connect 8 0 26 0;
#X connect 9 0 29 0;
#X connect 10 0 31 0;
#X connect 11 0 15 1;
#X connect 12 0 7 0;
#X connect 13 0 7 1;
#X connect 14 0 9 0;
#X connect 15 0 10 0;
#X connect 19 0 14 1;
#X connect 20 0 22 0;
#X connect 21 0 17 0;
#X connect 22 0 21 0;
#X connect 23 0 25 0;
#X connect 24 0 18 0;
#X connect 25 0 24 0;
#X connect 26 0 28 0;
#X connect 27 0 37 0;
#X connect 28 0 27 0;
#X connect 29 0 30 0;
#X connect 30 0 40 0;
#X connect 31 0 33 0;
#X connect 32 0 16 0;
#X connect 33 0 32 0;
#X connect 34 0 4 0;
#X connect 34 0 3 0;
#X connect 34 0 13 0;
#X connect 34 0 12 0;
#X connect 34 0 36 0;
#X connect 34 0 19 0;
#X connect 35 0 15 0;
#X connect 36 0 14 0;
#X connect 40 0 38 0;
#X connect 40 0 39 0;
#X restore 987 483 pd button;
#X connect 1 0 16 0;
#X connect 2 0 16 0;
#X connect 3 0 16 0;
#X connect 6 0 16 0;
#X connect 7 0 106 0;
#X connect 17 0 115 0;
#X connect 31 0 17 0;
#X connect 51 0 57 2;
#X connect 52 0 57 3;
#X connect 53 0 57 4;
#X connect 54 0 57 5;
#X connect 55 0 57 0;
#X connect 56 0 57 1;
#X connect 57 0 58 0;
#X connect 58 0 60 0;
#X connect 61 0 57 8;
#X connect 62 0 57 9;
#X connect 63 0 57 10;
#X connect 64 0 57 11;
#X connect 65 0 57 6;
#X connect 66 0 57 7;
#X connect 67 0 57 12;
#X connect 68 0 57 13;
#X connect 69 0 57 14;
#X connect 70 0 75 8;
#X connect 71 0 75 9;
#X connect 72 0 75 10;
#X connect 74 0 77 0;
#X connect 75 0 74 0;
#X connect 78 0 79 0;
#X connect 78 0 70 0;
#X connect 78 0 69 0;
#X connect 78 0 68 0;
#X connect 78 0 67 0;
#X connect 78 0 64 0;
#X connect 78 0 63 0;
#X connect 78 0 62 0;
#X connect 78 0 61 0;
#X connect 78 0 66 0;
#X connect 78 0 65 0;
#X connect 78 0 54 0;
#X connect 78 0 53 0;
#X connect 78 0 52 0;
#X connect 78 0 51 0;
#X connect 78 0 56 0;
#X connect 78 0 55 0;
#X connect 78 0 111 0;
#X connect 79 0 71 0;
#X connect 87 0 89 0;
#X connect 89 0 85 0;
#X connect 89 1 80 0;
#X connect 106 0 16 0;
#X connect 107 0 108 0;
#X connect 108 0 72 0;
#X connect 109 0 110 0;
#X connect 110 0 78 0;
#X connect 111 0 57 15;
#X connect 115 0 18 0;
#X connect 115 0 90 0;
#X connect 115 1 22 0;
#X connect 115 1 91 0;
#X connect 115 2 23 0;
#X connect 115 2 92 0;
#X connect 115 3 24 0;
#X connect 115 3 94 0;
#X connect 115 4 25 0;
#X connect 115 4 95 0;
#X connect 115 5 26 0;
#X connect 115 5 96 0;
#X connect 115 6 32 0;
#X connect 115 6 97 0;
#X connect 115 7 33 0;
#X connect 115 7 98 0;
#X connect 115 8 34 0;
#X connect 115 8 99 0;
#X connect 115 9 35 0;
#X connect 115 9 100 0;
#X connect 115 10 36 0;
#X connect 115 10 102 0;
#X connect 115 11 37 0;
#X connect 115 11 101 0;
#X connect 115 12 44 0;
#X connect 115 12 103 0;
#X connect 115 13 46 0;
#X connect 115 13 104 0;
#X connect 115 14 47 0;
#X connect 115 14 105 0;
#X connect 115 15 112 0;
#X connect 115 15 114 0;
#X coords 0 -1 1 1 400 200 1 100 300;
#X restore 18 73 pd arduino_c;
#X text 151 35 Build Your Synth;
#X obj -38 311 r A0;
#X obj -6 311 r A1;
#X obj 26 311 r A2;
#X obj 58 311 r A3;
#X obj 90 311 r A4;
#X obj 122 311 r A5;
#X obj 154 311 r A6;
#X obj 186 311 r A7;
#X obj 218 311 r A8;
#X obj 250 311 r A9;
#X obj 282 311 r A10;
#X obj 360 311 r A12;
#X obj 321 311 r A11;
#X obj 399 311 r A13;
#X obj 438 311 r A14;
#X obj 477 311 r A15;
#X coords 0 0 1 1 85 60 0;
