#N canvas 130 175 928 582 10;
#X obj 448 279 cnv 15 200 200 empty empty Granulator 20 -10 1 14 -4034
-66577 0;
#X obj 13 279 cnv 50 400 200 empty empty Master 20 -10 1 14 -258113
-66577 0;
#N canvas 798 101 452 343 masterF 0;
#N canvas 352 81 927 635 master 0;
#X obj 46 35 inlet~;
#X obj 62 470 dac~ 1 2;
#X obj 23 197 *~;
#X obj 86 35 inlet;
#X obj 86 69 line~;
#X obj 86 52 \$1 50;
#X obj 22 159 freeverb~;
#X obj 132 192 r~ granL;
#X obj 131 161 r~ granR;
#X msg 262 100 wet \$1;
#X msg 208 99 dry \$1;
#N canvas 1 80 450 300 inv 0;
#X obj 154 69 inlet;
#X obj 154 179 outlet;
#X msg 154 124 1;
#X obj 154 97 t b f;
#X obj 154 151 -;
#X connect 0 0 3 0;
#X connect 2 0 4 0;
#X connect 3 0 2 0;
#X connect 3 1 4 1;
#X connect 4 0 1 0;
#X restore 208 52 pd inv;
#X obj 154 35 inlet;
#X obj 120 35 inlet;
#X msg 120 86 roomsize \$1;
#X obj 71 198 *~;
#X obj 140 296 clip~ -1 1;
#X obj 30 296 clip~ -1 1;
#X obj 140 376 clip~ -1 1;
#X obj 30 376 clip~ -1 1;
#X obj 142 345 overdrive~ 1;
#X obj 32 345 overdrive~ 1;
#X obj 261 284 r distortion;
#X obj 261 328 + 1;
#X obj 261 306 * 40;
#X obj 417 429 tgl 15 0 empty empty empty 17 7 0 10 -262144 -1 -1 0
1;
#X obj 156 415 s~ VUR;
#X obj 76 415 s~ VUL;
#X obj 36 498 tabwrite~ left;
#X obj 149 477 tabwrite~ right;
#X obj 489 284 r distOn;
#X text 409 404 Dist;
#X obj 238 424 metro 100;
#X obj 238 395 r metronome;
#X connect 0 0 6 0;
#X connect 0 0 6 1;
#X connect 2 0 17 0;
#X connect 3 0 5 0;
#X connect 4 0 2 1;
#X connect 4 0 15 1;
#X connect 5 0 4 0;
#X connect 6 0 2 0;
#X connect 6 1 15 0;
#X connect 7 0 6 1;
#X connect 8 0 6 0;
#X connect 9 0 6 0;
#X connect 10 0 6 0;
#X connect 11 0 10 0;
#X connect 12 0 11 0;
#X connect 12 0 9 0;
#X connect 13 0 14 0;
#X connect 14 0 6 0;
#X connect 15 0 16 0;
#X connect 16 0 20 0;
#X connect 17 0 21 0;
#X connect 18 0 1 1;
#X connect 18 0 26 0;
#X connect 18 0 29 0;
#X connect 19 0 1 0;
#X connect 19 0 27 0;
#X connect 19 0 28 0;
#X connect 20 0 18 0;
#X connect 21 0 19 0;
#X connect 22 0 24 0;
#X connect 22 0 25 0;
#X connect 23 0 20 1;
#X connect 23 0 21 1;
#X connect 24 0 23 0;
#X connect 25 0 24 0;
#X connect 30 0 25 0;
#X connect 32 0 29 0;
#X connect 32 0 28 0;
#X connect 33 0 32 0;
#X coords 0 -1 1 1 50 50 2 400 400;
#X restore 171 234 pd master;
#X obj 11 21 r~ toMF;
#X obj 11 38 r~ toM;
#X obj 253 262 knob 32 32 0 1 0 0 empty empty Master 0 -8 0 8 -233017
-166441 -262144 2918 1;
#X obj 304 120 vu 15 120 empty empty -1 -8 0 10 -66577 -1 1 0;
#N canvas 0 50 152 114 VU 0;
#X obj 40 38 env~;
#X obj 40 60 - 100;
#X obj 40 86 outlet;
#X obj 40 15 r~ VUR;
#X connect 0 0 1 0;
#X connect 1 0 2 0;
#X connect 3 0 0 0;
#X restore 371 37 pd VU;
#X obj 116 190 hsl 36 24 0 1 0 0 empty empty empty -2 -8 0 10 -262144
-1 -1 0 1;
#X text 60 3 reverb section;
#X obj 113 167 hsl 128 15 0 1 0 0 empty empty empty -2 -8 0 10 -262144
-1 -1 0 1;
#X text 109 146 dry;
#X text 218 145 wet;
#X text 159 195 roomsize;
#X msg 360 147 \; pd dsp \$1;
#X obj 162 127 tgl 15 0 empty empty empty 17 7 0 10 -262144 -1 -1 1
1;
#X text 153 108 on/off;
#X obj 254 120 vu 15 120 empty empty -1 -8 0 10 -66577 -1 1 0;
#N canvas 0 50 152 114 VU 0;
#X obj 40 38 env~;
#X obj 40 60 - 100;
#X obj 40 86 outlet;
#X obj 40 15 r~ VUL;
#X connect 0 0 1 0;
#X connect 1 0 2 0;
#X connect 3 0 0 0;
#X restore 311 37 pd VU;
#X obj 379 259 r A7;
#X obj 88 25 r A4;
#X obj 116 25 r A5;
#X obj 121 119 tgl 15 0 empty empty empty 17 7 0 10 -262144 -1 -1 0
1;
#X obj 87 60 *;
#X obj 127 60 *;
#X obj 22 108 r revOn;
#X obj 211 21 r connected;
#X obj 215 43 t b;
#X connect 1 0 0 0;
#X connect 2 0 0 0;
#X connect 3 0 0 1;
#X connect 5 0 4 0;
#X connect 6 0 0 3;
#X connect 8 0 0 2;
#X connect 13 0 12 0;
#X connect 16 0 15 0;
#X connect 17 0 3 0;
#X connect 18 0 21 0;
#X connect 19 0 22 0;
#X connect 20 0 22 1;
#X connect 20 0 21 1;
#X connect 21 0 8 0;
#X connect 22 0 6 0;
#X connect 23 0 20 0;
#X connect 24 0 25 0;
#X connect 25 0 13 0;
#X coords 0 -1 1 1 250 200 1 100 100;
#X restore 13 279 pd masterF;
#N canvas 115 217 978 402 granulator 0;
#N canvas 110 157 1191 641 grain 0;
#X obj 917 46 openpanel;
#X obj 907 118 soundfiler;
#X floatatom 907 139 5 0 0 0 - - -;
#X obj 907 162 s fileSize;
#N canvas 0 50 450 278 (subpatch) 0;
#X array audio_file 105476 float 2;
#X coords 0 1 105476 -1 200 140 1 0 0;
#X restore 855 195 graph;
#X obj 827 99 s maxLength;
#X msg 827 78 4410;
#X obj 827 56 loadbang;
#X obj 412 469 *~;
#X obj 672 280 cos~;
#X obj 672 301 *~ -1;
#X obj 672 322 +~ 1;
#X obj 672 342 /~ 2;
#X obj 671 259 line~;
#X msg 671 212 1;
#X obj 671 235 pack 0 0;
#X msg 714 213 0;
#X obj 321 127 bng 15 250 50 0 empty empty empty 17 7 0 10 -262144
-1 -1;
#X text 322 88 play grain;
#X text 62 45 starting index;
#X text 3 7 read file from position to position;
#X obj 45 62 hsl 128 15 0 1 0 0 empty empty empty -2 -8 0 10 -262144
-1 -1 0 1;
#X obj 220 63 hsl 128 15 0 10 0 0 empty empty empty -2 -8 0 10 -262144
-1 -1 0 1;
#X obj 224 235 *;
#X obj 239 214 r maxLength;
#X obj 42 276 *;
#X obj 57 214 r fileSize;
#X obj 57 255 -;
#X obj 72 234 r maxLength;
#X floatatom 42 298 12 0 0 0 - - -;
#X floatatom 224 257 12 0 0 0 - - -;
#X obj 227 408 line~;
#X obj 227 386 pack 0 0;
#X obj 406 216 / 44.1;
#X obj 395 59 hsl 128 15 0.1 30 0 0 empty empty empty -2 -8 0 10 -262144
-1 -1 0 1;
#X obj 406 237 t b f;
#X obj 392 259 *;
#X obj 187 344 +;
#X obj 224 276 t b f;
#X obj 172 365 f;
#X obj 27 319 f;
#X obj 321 146 t b b b;
#X text 513 264 update time;
#X obj 207 408 bng 15 250 50 0 empty empty empty 17 7 0 10 -262144
-1 -1;
#X text 436 41 speed;
#X obj 858 338 hsl 195 15 0 1 0 0 empty empty empty -2 -8 0 10 -262144
-1 -1 0 1;
#X obj 416 113 swap 1;
#X obj 416 135 /;
#X floatatom 416 157 5 0 0 0 - - -;
#X floatatom 415 92 5 0 0 0 - - -;
#X obj 855 357 s startIDX_1;
#X obj 42 29 r startIDX_1;
#X obj 27 168 bng 15 250 50 0 empty empty empty 17 7 0 10 -262144 -1
-1;
#X obj 172 168 bng 15 250 50 0 empty empty empty 17 7 0 10 -262144
-1 -1;
#X text 649 186 apply volume envelope;
#X text 505 279 in volume envelope;
#X obj 714 169 bng 15 250 50 0 empty empty empty 17 7 0 10 -262144
-1 -1;
#X obj 321 106 r playBang;
#X obj 943 435 loadbang;
#X obj 752 466 loadbang;
#X obj 685 544 s speed;
#X obj 392 22 r speed;
#X obj 788 614 s playBang;
#X obj 392 282 t b f;
#X obj 375 309 min;
#X msg 719 501 0.1;
#X msg 910 470 20;
#X msg 945 470 150;
#X obj 664 430 loadbang;
#X obj 597 508 s length;
#X msg 631 465 0.01;
#X obj 224 31 r length;
#X obj 790 305 r start;
#X obj 1041 454 loadbang;
#X msg 1043 489 1;
#X obj 974 532 s start;
#X msg 1008 489 0;
#X text 286 47 length;
#X msg 907 97 read -resize \$1 audio_file;
#X obj 286 435 tabread~ audio_file;
#N canvas 737 142 450 300 minNrange 0;
#X obj 181 117 random 1000;
#X obj 181 138 / 1000;
#X floatatom 181 220 5 0 0 0 - - -;
#X obj 181 93 inlet;
#X text 180 72 bang;
#X text 204 163 range;
#X obj 281 95 inlet;
#X obj 332 95 inlet;
#X text 330 75 range;
#X obj 181 244 outlet;
#X text 287 75 min;
#X text 207 191 min;
#X obj 181 162 * 100;
#X obj 181 188 + 30;
#X connect 0 0 1 0;
#X connect 1 0 12 0;
#X connect 2 0 9 0;
#X connect 3 0 0 0;
#X connect 6 0 13 1;
#X connect 7 0 12 1;
#X connect 12 0 13 0;
#X connect 13 0 2 0;
#X restore 597 487 pd minNrange;
#N canvas 737 142 450 300 minNrange 0;
#X obj 181 117 random 1000;
#X obj 181 138 / 1000;
#X floatatom 181 220 5 0 0 0 - - -;
#X obj 181 93 inlet;
#X text 180 72 bang;
#X obj 181 162 * 1;
#X text 204 163 range;
#X obj 181 188 + 0;
#X obj 281 95 inlet;
#X obj 332 95 inlet;
#X text 330 75 range;
#X obj 181 244 outlet;
#X text 283 74 min;
#X text 207 191 min;
#X connect 0 0 1 0;
#X connect 1 0 5 0;
#X connect 2 0 11 0;
#X connect 3 0 0 0;
#X connect 5 0 7 0;
#X connect 7 0 2 0;
#X connect 8 0 7 1;
#X connect 9 0 5 1;
#X restore 685 523 pd minNrange;
#N canvas 737 142 450 300 minNrange 0;
#X obj 181 117 random 1000;
#X obj 181 138 / 1000;
#X floatatom 181 220 5 0 0 0 - - -;
#X obj 181 93 inlet;
#X text 180 72 bang;
#X obj 181 162 * 1;
#X text 204 163 range;
#X obj 181 188 + 0;
#X obj 281 95 inlet;
#X obj 332 95 inlet;
#X text 330 75 range;
#X obj 181 244 outlet;
#X text 283 74 min;
#X text 207 191 min;
#X connect 0 0 1 0;
#X connect 1 0 5 0;
#X connect 2 0 11 0;
#X connect 3 0 0 0;
#X connect 5 0 7 0;
#X connect 7 0 2 0;
#X connect 8 0 7 1;
#X connect 9 0 5 1;
#X restore 876 492 pd minNrange;
#N canvas 737 142 450 300 minNrange 0;
#X obj 181 117 random 1000;
#X obj 181 138 / 1000;
#X floatatom 181 220 5 0 0 0 - - -;
#X obj 181 93 inlet;
#X text 180 72 bang;
#X obj 181 162 * 1;
#X text 204 163 range;
#X obj 181 188 + 0;
#X obj 281 95 inlet;
#X obj 332 95 inlet;
#X text 330 75 range;
#X obj 181 244 outlet;
#X text 283 74 min;
#X text 207 191 min;
#X connect 0 0 1 0;
#X connect 1 0 5 0;
#X connect 2 0 11 0;
#X connect 3 0 0 0;
#X connect 5 0 7 0;
#X connect 7 0 2 0;
#X connect 8 0 7 1;
#X connect 9 0 5 1;
#X restore 974 511 pd minNrange;
#X msg 894 443 1000;
#X obj 837 466 metro 100;
#X obj 789 591 metro 100;
#X obj 882 550 random 100;
#X obj 828 567 +;
#X obj 914 21 inlet;
#X obj 828 546 inlet;
#X text 810 524 millisec metro;
#X obj 819 414 inlet;
#X text 913 1 loading audio file;
#X text 804 389 start granulator;
#X obj 411 524 outlet~;
#X msg 407 42 1;
#X msg 754 501 18;
#X msg 666 465 5;
#X obj 1043 36 loadbang;
#X msg 925 70 symbol /home/pi/sample.wav;
#X connect 0 0 78 0;
#X connect 1 0 2 0;
#X connect 2 0 3 0;
#X connect 6 0 5 0;
#X connect 7 0 6 0;
#X connect 8 0 95 0;
#X connect 9 0 10 0;
#X connect 10 0 11 0;
#X connect 11 0 12 0;
#X connect 12 0 8 1;
#X connect 13 0 9 0;
#X connect 14 0 15 0;
#X connect 15 0 13 0;
#X connect 16 0 13 0;
#X connect 17 0 41 0;
#X connect 21 0 25 0;
#X connect 22 0 23 0;
#X connect 23 0 30 0;
#X connect 24 0 23 1;
#X connect 25 0 29 0;
#X connect 26 0 27 0;
#X connect 27 0 25 1;
#X connect 28 0 27 1;
#X connect 29 0 37 0;
#X connect 29 0 40 1;
#X connect 30 0 33 0;
#X connect 30 0 38 0;
#X connect 31 0 79 0;
#X connect 32 0 31 0;
#X connect 32 0 43 0;
#X connect 33 0 35 0;
#X connect 34 0 49 0;
#X connect 35 0 36 0;
#X connect 35 1 36 1;
#X connect 36 0 63 0;
#X connect 37 0 39 1;
#X connect 38 0 37 0;
#X connect 38 1 37 1;
#X connect 39 0 32 0;
#X connect 40 0 31 0;
#X connect 41 0 53 0;
#X connect 41 1 52 0;
#X connect 41 2 56 0;
#X connect 43 0 14 0;
#X connect 45 0 50 0;
#X connect 46 0 47 0;
#X connect 46 1 47 1;
#X connect 47 0 48 0;
#X connect 48 0 36 0;
#X connect 49 0 46 0;
#X connect 51 0 21 0;
#X connect 52 0 40 0;
#X connect 53 0 39 0;
#X connect 56 0 16 0;
#X connect 57 0 17 0;
#X connect 58 0 66 0;
#X connect 58 0 67 0;
#X connect 58 0 84 0;
#X connect 59 0 65 0;
#X connect 59 0 97 0;
#X connect 61 0 34 0;
#X connect 63 0 64 0;
#X connect 63 1 64 1;
#X connect 64 0 32 1;
#X connect 64 0 15 1;
#X connect 65 0 81 1;
#X connect 66 0 82 1;
#X connect 67 0 82 2;
#X connect 68 0 70 0;
#X connect 68 0 98 0;
#X connect 70 0 80 1;
#X connect 71 0 22 0;
#X connect 72 0 45 0;
#X connect 73 0 76 0;
#X connect 73 0 74 0;
#X connect 74 0 83 2;
#X connect 76 0 83 1;
#X connect 78 0 1 0;
#X connect 79 0 8 0;
#X connect 80 0 69 0;
#X connect 81 0 60 0;
#X connect 82 0 64 0;
#X connect 82 0 85 1;
#X connect 83 0 75 0;
#X connect 84 0 64 0;
#X connect 85 0 82 0;
#X connect 85 0 81 0;
#X connect 85 0 80 0;
#X connect 85 0 83 0;
#X connect 85 0 87 0;
#X connect 86 0 62 0;
#X connect 87 0 88 0;
#X connect 88 0 86 1;
#X connect 89 0 0 0;
#X connect 90 0 88 1;
#X connect 92 0 85 0;
#X connect 92 0 86 0;
#X connect 96 0 34 0;
#X connect 97 0 81 2;
#X connect 98 0 80 2;
#X connect 99 0 100 0;
#X connect 100 0 78 0;
#X restore 335 138 pd grain;
#X obj 141 168 bng 15 250 50 0 empty empty empty 17 7 0 10 -262144
-1 -1;
#X text 161 165 load file;
#X obj 142 144 tgl 15 0 empty empty empty 17 7 0 10 -262144 -1 -1 0
1;
#X obj 135 245 gpan~;
#X text 158 141 trig granulator;
#X obj 391 97 metro 100;
#X obj 391 121 random 10;
#X obj 391 145 / 10;
#X floatatom 391 166 5 0 0 0 - - -;
#X obj 372 -5 r metronome;
#X obj 100 345 s~ granL;
#X obj 212 341 s~ granR;
#X obj 367 62 /;
#X obj 428 28 r gran;
#X floatatom 526 95 5 0 0 0 - - -;
#X floatatom 319 81 5 0 0 0 - - -;
#X floatatom 332 17 5 0 0 0 - - -;
#X obj 518 125 metro 100;
#X obj 526 73 * 2;
#X obj 127 27 r granOn;
#X connect 0 0 4 0;
#X connect 0 0 4 1;
#X connect 1 0 0 2;
#X connect 3 0 0 0;
#X connect 3 0 6 0;
#X connect 4 0 11 0;
#X connect 4 1 12 0;
#X connect 6 0 7 0;
#X connect 7 0 8 0;
#X connect 8 0 9 0;
#X connect 9 0 4 2;
#X connect 10 0 6 1;
#X connect 10 0 13 0;
#X connect 10 0 17 0;
#X connect 13 0 0 1;
#X connect 13 0 16 0;
#X connect 14 0 19 0;
#X connect 15 0 13 1;
#X connect 15 0 18 0;
#X connect 18 0 13 0;
#X connect 19 0 15 0;
#X connect 20 0 3 0;
#X coords 0 -1 1 1 200 200 1 100 100;
#X restore 448 280 pd granulator;
#N canvas 156 303 450 300 filter 0;
#X floatatom 196 203 5 0 0 0 - - -;
#N canvas 400 108 450 300 vcFilter 0;
#X obj 56 95 r~ toF;
#X obj 56 240 s~ toMF;
#X obj 56 151 vcf~;
#X obj 113 116 sig~;
#X obj 113 49 inlet;
#X obj 203 134 inlet;
#X connect 0 0 2 0;
#X connect 2 0 1 0;
#X connect 3 0 2 1;
#X connect 4 0 3 0;
#X connect 5 0 2 2;
#X restore 131 262 pd vcFilter;
#X obj 115 150 vsl 30 50 100 3000 0 0 empty empty empty 0 -9 0 10 -262144
-1 -1 0 1;
#X text 203 179 q;
#X floatatom 187 135 5 0 0 0 - - -;
#X text 177 109 Frequency;
#X obj 125 112 tgl 15 0 empty empty empty 17 7 0 10 -262144 -1 -1 0
1;
#X obj 124 45 metro 100;
#X obj 140 14 r metronome;
#X obj 127 68 random 2000;
#X obj 271 163 r A13;
#X obj 271 186 * 10;
#X obj 313 38 r filterOn;
#X obj 44 64 loadbang;
#X connect 0 0 1 1;
#X connect 2 0 1 0;
#X connect 4 0 2 0;
#X connect 6 0 7 0;
#X connect 7 0 9 0;
#X connect 8 0 7 1;
#X connect 9 0 4 0;
#X connect 10 0 11 0;
#X connect 11 0 0 0;
#X connect 12 0 6 0;
#X connect 13 0 4 0;
#X coords 0 -1 1 1 150 150 1 100 100;
#X restore 375 40 pd filter;
#N canvas 822 98 450 294 osc2 0;
#X obj -8 76 osc~;
#N canvas 0 50 450 300 demux 0;
#X obj 29 24 inlet~;
#X obj 251 25 inlet;
#X obj 48 239 outlet~;
#X obj 135 239 outlet~;
#X text 131 257 to Filter;
#X text 40 259 to Main;
#X obj 193 79 == 0;
#X obj 259 80 == 1;
#X obj 325 80 == 2;
#X obj 260 112 \$1 20;
#X obj 259 143 line~;
#X obj 326 112 \$1 20;
#X obj 325 143 line~;
#X obj 48 205 *~;
#X obj 133 206 *~;
#X connect 0 0 13 0;
#X connect 0 0 14 0;
#X connect 1 0 7 0;
#X connect 1 0 6 0;
#X connect 1 0 8 0;
#X connect 7 0 9 0;
#X connect 8 0 11 0;
#X connect 9 0 10 0;
#X connect 10 0 13 1;
#X connect 11 0 12 0;
#X connect 12 0 14 1;
#X connect 13 0 2 0;
#X connect 14 0 3 0;
#X restore 20 228 pd demux;
#X floatatom 168 272 5 0 0 0 - - -;
#N canvas 0 116 177 67 vol 0;
#X obj 45 71 *~;
#X obj 100 54 line~;
#X obj 45 71 *~;
#X obj 100 54 line~;
#X obj 45 94 outlet~;
#X obj 45 9 inlet~;
#X obj 100 34 \$1 50;
#X obj 97 10 inlet;
#X connect 0 0 4 0;
#X connect 1 0 0 1;
#X connect 3 0 2 1;
#X connect 5 0 0 0;
#X connect 6 0 1 0;
#X connect 7 0 6 0;
#X restore 4 137 pd vol;
#X floatatom 158 139 5 0 0 0 - - -;
#X msg 298 188 1;
#X text 139 209 to FControll;
#X text 157 114 freq;
#X obj 171 185 bng 15 250 50 0 empty empty empty 17 7 0 10 -262144
-1 -1;
#X obj 172 228 bng 15 250 50 0 empty empty empty 17 7 0 10 -262144
-1 -1;
#X msg 290 243 2;
#X obj 76 255 s~ toFControl;
#X obj 14 255 s~ toMfO2;
#X obj 112 15 r A8;
#X obj 89 62 - 0.2;
#X obj 40 68 r A15;
#X obj 29 40 phasor~;
#X obj 29 14 sig~ 890;
#N canvas 0 50 279 188 vol 0;
#X obj 45 71 *~;
#X obj 119 73 line~;
#X obj 45 71 *~;
#X obj 119 73 line~;
#X obj 45 94 outlet~;
#X obj 45 9 inlet~;
#X obj 97 10 inlet;
#X obj 119 53 \$1 50;
#X obj 103 32 / 2;
#X connect 0 0 4 0;
#X connect 1 0 0 1;
#X connect 3 0 2 1;
#X connect 5 0 0 0;
#X connect 6 0 8 0;
#X connect 7 0 1 0;
#X connect 8 0 7 0;
#X restore 34 167 pd vol;
#X obj 251 27 noise~;
#N canvas 0 50 279 188 vol 0;
#X obj 45 71 *~;
#X obj 119 73 line~;
#X obj 45 71 *~;
#X obj 119 73 line~;
#X obj 45 94 outlet~;
#X obj 45 9 inlet~;
#X obj 97 10 inlet;
#X obj 119 53 \$1 50;
#X obj 103 32 / 2;
#X connect 0 0 4 0;
#X connect 1 0 0 1;
#X connect 3 0 2 1;
#X connect 5 0 0 0;
#X connect 6 0 8 0;
#X connect 7 0 1 0;
#X connect 8 0 7 0;
#X restore 284 67 pd vol;
#N canvas 0 50 279 188 vol 0;
#X obj 45 71 *~;
#X obj 119 73 line~;
#X obj 45 71 *~;
#X obj 119 73 line~;
#X obj 45 94 outlet~;
#X obj 45 9 inlet~;
#X obj 97 10 inlet;
#X obj 119 53 \$1 50;
#X obj 103 32 / 2;
#X connect 0 0 4 0;
#X connect 1 0 0 1;
#X connect 3 0 2 1;
#X connect 5 0 0 0;
#X connect 6 0 8 0;
#X connect 7 0 1 0;
#X connect 8 0 7 0;
#X restore 284 97 pd vol;
#X obj 346 121 t b;
#X obj 133 41 * 1200;
#X obj 68 135 +;
#X obj 186 61 random -5 +5;
#X text 150 163 to Main;
#X obj 209 16 tgl 15 0 empty empty empty 17 7 0 10 -262144 -1 -1 0
1;
#X floatatom 166 10 5 0 0 0 - - -;
#X floatatom 66 104 5 0 0 0 - - -;
#X obj 20 101 * 0.3;
#X connect 0 0 3 0;
#X connect 1 0 12 0;
#X connect 1 1 11 0;
#X connect 2 0 1 1;
#X connect 3 0 1 0;
#X connect 4 0 0 0;
#X connect 4 0 24 0;
#X connect 5 0 2 0;
#X connect 8 0 5 0;
#X connect 9 0 10 0;
#X connect 10 0 2 0;
#X connect 13 0 14 0;
#X connect 13 0 20 1;
#X connect 13 0 23 0;
#X connect 15 0 22 0;
#X connect 15 0 29 0;
#X connect 15 0 30 0;
#X connect 16 0 18 0;
#X connect 17 0 16 0;
#X connect 18 0 1 0;
#X connect 19 0 20 0;
#X connect 20 0 21 0;
#X connect 21 0 1 0;
#X connect 22 0 5 0;
#X connect 23 0 4 0;
#X connect 24 0 17 0;
#X connect 25 0 24 1;
#X connect 27 0 18 1;
#X connect 27 0 3 1;
#X connect 28 0 23 0;
#X connect 30 0 3 1;
#X connect 30 0 18 1;
#X connect 30 0 21 1;
#X coords 0 -1 1 1 150 150 1 100 100;
#X restore 189 40 pd osc2;
#N canvas 686 113 927 635 osc1 1;
#X obj 107 211 knob 32 32 0 0.8 0 0 empty empty empty 0 -8 0 8 -233017
-166441 -262144 508 1;
#X floatatom 126 122 5 0 0 0 - - -;
#X floatatom 129 161 5 0 0 0 - - -;
#X obj 127 366 s oscVol;
#X text 121 141 mod dep;
#X text 112 105 mod freq;
#X floatatom 258 298 5 0 0 0 - - -;
#X msg 296 203 1;
#X obj 203 166 bng 15 250 50 0 empty empty empty 17 7 0 10 -262144
-1 -1;
#X obj 204 202 bng 15 250 50 0 empty empty empty 17 7 0 10 -262144
-1 -1;
#X msg 294 235 2;
#X text 173 183 to Filter;
#X obj 441 93 notein;
#X obj 442 159 pack 0 0 0;
#X obj 442 137 poly 4 1;
#X obj 442 181 route 1 2 3 4;
#N canvas 805 374 442 300 oscil 0;
#X obj 166 51 unpack 0 0;
#X obj 166 73 mtof;
#X obj 165 120 osc~;
#X obj 164 174 *~;
#X obj 301 141 / 127;
#X obj 165 27 inlet;
#X obj 164 196 *~;
#X obj 164 218 outlet~;
#X obj 315 87 sel 0;
#N canvas 338 353 450 300 adsr 0;
#X obj 50 19 r r;
#X obj 45 106 pack 0 0;
#X text -5 105 release;
#X obj 182 190 line~;
#X obj 182 212 outlet~;
#X obj 182 131 0;
#X obj 176 16 inlet;
#X obj 176 38 sel 0;
#X msg 176 60 stop;
#X obj 289 86 delay;
#X obj 289 108 pack 0 0 0;
#X obj 289 130 route 0;
#X text 364 112 decay;
#X obj 299 11 r a;
#X obj 342 11 r d;
#X obj 389 10 r s;
#X obj 232 61 t b b b;
#X obj 299 33 + 1;
#X obj 225 115 pack 1 0;
#X text 229 133 attack;
#X connect 0 0 1 1;
#X connect 1 0 3 0;
#X connect 3 0 4 0;
#X connect 5 0 3 0;
#X connect 6 0 7 0;
#X connect 7 0 8 0;
#X connect 7 0 1 0;
#X connect 7 1 16 0;
#X connect 8 0 9 0;
#X connect 9 0 10 0;
#X connect 10 0 11 0;
#X connect 11 0 3 0;
#X connect 13 0 17 0;
#X connect 13 0 18 1;
#X connect 14 0 10 2;
#X connect 15 0 10 1;
#X connect 16 0 9 0;
#X connect 16 1 18 0;
#X connect 16 2 5 0;
#X connect 17 0 9 1;
#X connect 18 0 3 0;
#X restore 211 116 pd adsr;
#X obj 164 147 -~ 0.5;
#X obj 165 98 +~;
#X obj 99 54 osc~;
#X obj 99 81 *~;
#X obj 31 12 inlet;
#X obj 37 70 inlet;
#X floatatom 63 129 5 0 0 0 - - -;
#X floatatom 37 92 5 0 0 0 - - -;
#X floatatom 238 33 5 0 0 0 - - -;
#X text 63 270 voce 1;
#X obj 56 236 s~ adsrton1;
#X connect 0 0 1 0;
#X connect 0 1 8 0;
#X connect 0 1 9 0;
#X connect 1 0 11 0;
#X connect 2 0 10 0;
#X connect 3 0 6 0;
#X connect 4 0 6 1;
#X connect 5 0 0 0;
#X connect 5 0 18 0;
#X connect 6 0 7 0;
#X connect 8 1 4 0;
#X connect 9 0 3 1;
#X connect 9 0 20 0;
#X connect 10 0 3 0;
#X connect 11 0 2 0;
#X connect 12 0 13 0;
#X connect 13 0 11 1;
#X connect 14 0 12 0;
#X connect 14 0 16 0;
#X connect 15 0 13 1;
#X connect 15 0 17 0;
#X restore 442 213 pd oscil;
#X obj 261 420 s~ toMfO1;
#N canvas 575 376 450 300 demux 0;
#X obj 29 24 inlet~;
#X obj 251 25 inlet;
#X obj 48 239 outlet~;
#X obj 135 239 outlet~;
#X text 131 257 to Filter;
#X text 40 259 to Main;
#X obj 193 79 == 0;
#X obj 259 80 == 1;
#X obj 325 80 == 2;
#X obj 260 112 \$1 20;
#X obj 259 143 line~;
#X obj 326 112 \$1 20;
#X obj 325 143 line~;
#X obj 48 205 *~;
#X obj 133 206 *~;
#X connect 0 0 13 0;
#X connect 0 0 14 0;
#X connect 1 0 7 0;
#X connect 1 0 6 0;
#X connect 1 0 8 0;
#X connect 7 0 9 0;
#X connect 8 0 11 0;
#X connect 9 0 10 0;
#X connect 10 0 13 1;
#X connect 11 0 12 0;
#X connect 12 0 14 1;
#X connect 13 0 2 0;
#X connect 14 0 3 0;
#X restore 310 371 pd demux;
#N canvas 0 50 227 89 vol 0;
#X obj 45 71 *~;
#X obj 100 54 line~;
#X obj 45 71 *~;
#X obj 100 54 line~;
#X obj 45 94 outlet~;
#X obj 45 9 inlet~;
#X obj 99 9 inlet;
#X obj 99 32 \$1 0;
#X connect 0 0 4 0;
#X connect 1 0 0 1;
#X connect 3 0 2 1;
#X connect 5 0 0 0;
#X connect 6 0 7 0;
#X connect 7 0 1 0;
#X restore 435 339 pd vol;
#X obj 347 421 s~ toFfO1;
#N canvas 355 384 442 300 oscil 0;
#X obj 166 51 unpack 0 0;
#X obj 166 73 mtof;
#X obj 165 120 osc~;
#X obj 164 174 *~;
#X obj 301 141 / 127;
#X obj 165 27 inlet;
#X obj 164 196 *~;
#X obj 164 218 outlet~;
#X obj 308 84 sel 0;
#N canvas 334 460 450 300 adsr 0;
#X obj 50 19 r r;
#X obj 45 106 pack 0 0;
#X text -5 105 release;
#X obj 182 190 line~;
#X obj 182 212 outlet~;
#X obj 182 131 0;
#X obj 176 16 inlet;
#X obj 176 38 sel 0;
#X msg 176 60 stop;
#X obj 289 86 delay;
#X obj 289 108 pack 0 0 0;
#X obj 289 130 route 0;
#X text 364 112 decay;
#X obj 299 11 r a;
#X obj 342 11 r d;
#X obj 389 10 r s;
#X obj 232 61 t b b b;
#X obj 299 33 + 1;
#X obj 225 115 pack 1 0;
#X text 229 133 attack;
#X connect 0 0 1 1;
#X connect 1 0 3 0;
#X connect 3 0 4 0;
#X connect 5 0 3 0;
#X connect 6 0 7 0;
#X connect 7 0 8 0;
#X connect 7 0 1 0;
#X connect 7 1 16 0;
#X connect 8 0 9 0;
#X connect 9 0 10 0;
#X connect 10 0 11 0;
#X connect 11 0 3 0;
#X connect 13 0 17 0;
#X connect 13 0 18 1;
#X connect 14 0 10 2;
#X connect 15 0 10 1;
#X connect 16 0 9 0;
#X connect 16 1 18 0;
#X connect 16 2 5 0;
#X connect 17 0 9 1;
#X connect 18 0 3 0;
#X restore 211 116 pd adsr;
#X obj 164 147 -~ 0.5;
#X obj 165 98 +~;
#X obj 99 54 osc~;
#X obj 99 81 *~;
#X obj 31 12 inlet;
#X obj 37 70 inlet;
#X floatatom 63 129 5 0 0 0 - - -;
#X floatatom 37 92 5 0 0 0 - - -;
#X floatatom 238 33 5 0 0 0 - - -;
#X obj 49 197 s~ adsrton2;
#X text 57 224 voice 2;
#X connect 0 0 1 0;
#X connect 0 1 8 0;
#X connect 0 1 9 0;
#X connect 1 0 11 0;
#X connect 2 0 10 0;
#X connect 3 0 6 0;
#X connect 4 0 6 1;
#X connect 5 0 0 0;
#X connect 5 0 18 0;
#X connect 6 0 7 0;
#X connect 8 1 4 0;
#X connect 9 0 3 1;
#X connect 9 0 19 0;
#X connect 10 0 3 0;
#X connect 11 0 2 0;
#X connect 12 0 13 0;
#X connect 13 0 11 1;
#X connect 14 0 12 0;
#X connect 14 0 16 0;
#X connect 15 0 13 1;
#X connect 15 0 17 0;
#X restore 462 233 pd oscil;
#N canvas 355 384 442 300 oscil 0;
#X obj 166 51 unpack 0 0;
#X obj 166 73 mtof;
#X obj 165 120 osc~;
#X obj 164 174 *~;
#X obj 301 140 / 127;
#X obj 165 27 inlet;
#X obj 164 196 *~;
#X obj 164 218 outlet~;
#X obj 312 87 sel 0;
#N canvas 334 460 450 300 adsr 0;
#X obj 50 19 r r;
#X obj 45 106 pack 0 0;
#X text -5 105 release;
#X obj 182 190 line~;
#X obj 182 212 outlet~;
#X obj 182 131 0;
#X obj 176 16 inlet;
#X obj 176 38 sel 0;
#X msg 176 60 stop;
#X obj 289 86 delay;
#X obj 289 108 pack 0 0 0;
#X obj 289 130 route 0;
#X text 364 112 decay;
#X obj 299 11 r a;
#X obj 342 11 r d;
#X obj 389 10 r s;
#X obj 232 61 t b b b;
#X obj 299 33 + 1;
#X obj 225 115 pack 1 0;
#X text 229 133 attack;
#X connect 0 0 1 1;
#X connect 1 0 3 0;
#X connect 3 0 4 0;
#X connect 5 0 3 0;
#X connect 6 0 7 0;
#X connect 7 0 8 0;
#X connect 7 0 1 0;
#X connect 7 1 16 0;
#X connect 8 0 9 0;
#X connect 9 0 10 0;
#X connect 10 0 11 0;
#X connect 11 0 3 0;
#X connect 13 0 17 0;
#X connect 13 0 18 1;
#X connect 14 0 10 2;
#X connect 15 0 10 1;
#X connect 16 0 9 0;
#X connect 16 1 18 0;
#X connect 16 2 5 0;
#X connect 17 0 9 1;
#X connect 18 0 3 0;
#X restore 211 116 pd adsr;
#X obj 164 147 -~ 0.5;
#X obj 165 98 +~;
#X obj 99 54 osc~;
#X obj 99 81 *~;
#X obj 31 12 inlet;
#X obj 37 70 inlet;
#X floatatom 63 129 5 0 0 0 - - -;
#X floatatom 37 92 5 0 0 0 - - -;
#X floatatom 238 33 5 0 0 0 - - -;
#X obj 56 196 s~ adsrton3;
#X text 58 224 voice 3;
#X connect 0 0 1 0;
#X connect 0 1 8 0;
#X connect 0 1 9 0;
#X connect 1 0 11 0;
#X connect 2 0 10 0;
#X connect 3 0 6 0;
#X connect 4 0 6 1;
#X connect 5 0 0 0;
#X connect 5 0 18 0;
#X connect 6 0 7 0;
#X connect 8 1 4 0;
#X connect 9 0 3 1;
#X connect 9 0 19 0;
#X connect 10 0 3 0;
#X connect 11 0 2 0;
#X connect 12 0 13 0;
#X connect 13 0 11 1;
#X connect 14 0 12 0;
#X connect 14 0 16 0;
#X connect 15 0 13 1;
#X connect 15 0 17 0;
#X restore 482 253 pd oscil;
#N canvas 353 427 442 269 oscil 0;
#X obj 166 51 unpack 0 0;
#X obj 166 73 mtof;
#X obj 165 120 osc~;
#X obj 164 174 *~;
#X obj 301 141 / 127;
#X obj 165 27 inlet;
#X obj 164 196 *~;
#X obj 164 218 outlet~;
#X obj 307 101 sel 0;
#N canvas 53 486 1157 549 adsr 0;
#X obj 50 19 r r;
#X obj 45 106 pack 0 0;
#X text -5 105 release;
#X obj 182 212 outlet~;
#X obj 182 131 0;
#X obj 176 16 inlet;
#X obj 176 38 sel 0;
#X msg 176 60 stop;
#X obj 289 86 delay;
#X obj 289 108 pack 0 0 0;
#X obj 289 130 route 0;
#X text 364 112 decay;
#X obj 299 11 r a;
#X obj 342 11 r d;
#X obj 389 10 r s;
#X obj 232 61 t b b b;
#X obj 299 33 + 1;
#X obj 225 115 pack 1 0;
#X text 229 133 attack;
#X obj 185 190 line~;
#X connect 0 0 1 1;
#X connect 1 0 19 0;
#X connect 4 0 19 0;
#X connect 5 0 6 0;
#X connect 6 0 7 0;
#X connect 6 0 1 0;
#X connect 6 1 15 0;
#X connect 7 0 8 0;
#X connect 8 0 9 0;
#X connect 9 0 10 0;
#X connect 10 0 19 0;
#X connect 12 0 16 0;
#X connect 12 0 17 1;
#X connect 13 0 9 2;
#X connect 14 0 9 1;
#X connect 15 0 8 0;
#X connect 15 1 17 0;
#X connect 15 2 4 0;
#X connect 16 0 8 1;
#X connect 17 0 19 0;
#X connect 19 0 3 0;
#X restore 211 116 pd adsr;
#X obj 164 147 -~ 0.5;
#X obj 165 98 +~;
#X obj 99 54 osc~;
#X obj 99 81 *~;
#X obj 31 12 inlet;
#X obj 37 70 inlet;
#X floatatom 63 129 5 0 0 0 - - -;
#X floatatom 37 92 5 0 0 0 - - -;
#X floatatom 238 33 5 0 0 0 - - -;
#X obj 60 187 s~ adsrton4;
#X text 64 224 voice 4;
#X connect 0 0 1 0;
#X connect 0 1 8 0;
#X connect 0 1 9 0;
#X connect 1 0 11 0;
#X connect 2 0 10 0;
#X connect 3 0 6 0;
#X connect 4 0 6 1;
#X connect 5 0 0 0;
#X connect 5 0 18 0;
#X connect 6 0 7 0;
#X connect 8 1 4 0;
#X connect 9 0 3 1;
#X connect 9 0 19 0;
#X connect 10 0 3 0;
#X connect 11 0 2 0;
#X connect 12 0 13 0;
#X connect 13 0 11 1;
#X connect 14 0 12 0;
#X connect 14 0 16 0;
#X connect 15 0 13 1;
#X connect 15 0 17 0;
#X restore 502 273 pd oscil;
#X floatatom 392 137 5 0 0 0 - - -;
#X obj 106 5 r A2;
#X obj 173 5 r A3;
#X obj 109 75 * 50;
#X obj 175 25 - 0.525;
#X obj 108 27 - 0.5268;
#X obj 173 75 * 150;
#N canvas 783 334 450 300 demux 0;
#X text 40 259 to Main;
#X obj 39 32 inlet;
#X obj 48 239 outlet;
#X obj 49 205 *;
#X obj 69 108 ||;
#X floatatom 151 44 5 0 0 0 - - -;
#X obj 67 82 < -0.1;
#X obj 117 82 > 0.1;
#X connect 1 0 3 0;
#X connect 1 0 5 0;
#X connect 1 0 6 0;
#X connect 1 0 7 0;
#X connect 3 0 2 0;
#X connect 4 0 3 1;
#X connect 6 0 4 0;
#X connect 7 0 4 1;
#X restore 108 50 pd demux;
#N canvas 783 334 450 300 demux 0;
#X text 40 259 to Main;
#X obj 39 32 inlet;
#X obj 48 239 outlet;
#X obj 49 205 *;
#X obj 69 108 ||;
#X obj 67 82 < -0.1;
#X obj 117 82 > 0.1;
#X connect 1 0 3 0;
#X connect 1 0 5 0;
#X connect 1 0 6 0;
#X connect 3 0 2 0;
#X connect 4 0 3 1;
#X connect 5 0 4 0;
#X connect 6 0 4 1;
#X restore 173 51 pd demux;
#X obj 27 81 r A0;
#X obj 40 120 * 2;
#X obj 366 78 loadbang;
#X connect 0 0 19 1;
#X connect 1 0 16 0;
#X connect 1 0 21 0;
#X connect 1 0 22 0;
#X connect 1 0 23 0;
#X connect 2 0 16 1;
#X connect 2 0 23 1;
#X connect 2 0 22 1;
#X connect 2 0 21 1;
#X connect 6 0 18 1;
#X connect 7 0 6 0;
#X connect 8 0 7 0;
#X connect 9 0 10 0;
#X connect 10 0 6 0;
#X connect 12 0 14 0;
#X connect 12 0 24 0;
#X connect 12 1 14 1;
#X connect 13 0 15 0;
#X connect 14 0 13 0;
#X connect 14 1 13 1;
#X connect 14 2 13 2;
#X connect 15 0 16 2;
#X connect 15 1 21 2;
#X connect 15 2 22 2;
#X connect 15 3 23 2;
#X connect 16 0 19 0;
#X connect 19 0 18 0;
#X connect 19 0 20 0;
#X connect 21 0 19 0;
#X connect 22 0 19 0;
#X connect 23 0 19 0;
#X connect 25 0 29 0;
#X connect 26 0 28 0;
#X connect 27 0 1 0;
#X connect 28 0 32 0;
#X connect 29 0 31 0;
#X connect 30 0 2 0;
#X connect 31 0 27 0;
#X connect 32 0 30 0;
#X connect 33 0 34 0;
#X connect 34 0 0 0;
#X connect 35 0 9 0;
#X coords 0 -1 1 1 150 150 2 100 100;
#X restore 14 41 pd osc1;
#N canvas 794 410 450 300 patcher 0;
#X obj 299 73 s~ toF;
#X obj 148 67 s~ toM;
#X obj 136 13 r~ toMfO1;
#X obj 266 13 r~ toFfO1;
#X obj 66 12 r~ toMfO2;
#X text 223 116 Patcher;
#X text 104 100 -+-+-+-+-+-+-+-+-+-+-+-+-+-+--+-+-+-+-+-+;
#X text 104 130 -+-+-+-+-+-+-+-+-+-+-+-+-+-+--+-+-+-+-+-+;
#X connect 2 0 1 0;
#X connect 3 0 0 0;
#X connect 4 0 1 0;
#X coords 0 -1 1 1 300 50 2 100 100;
#X restore 15 204 pd patcher;
#N canvas 0 107 1360 738 adsr_ 0;
#X obj 160 134 vsl 15 128 0 1 0 0 empty empty empty 0 -9 0 10 -262144
-1 -1 7002 1;
#X obj 180 134 vsl 15 128 0 1 0 0 empty empty empty 0 -9 0 10 -262144
-1 -1 10105 1;
#X obj 200 134 vsl 15 128 0 1 0 0 empty empty empty 0 -9 0 10 -262144
-1 -1 6778 1;
#X obj 220 134 vsl 15 128 0 1 0 0 empty empty empty 0 -9 0 10 -262144
-1 -1 12241 1;
#X obj 455 380 s r;
#X obj 259 403 s s;
#X obj 186 402 s d;
#X obj 98 398 s a;
#X obj 186 382 - 10;
#X obj 455 360 - 10;
#X obj 259 363 - 0.1;
#X text 163 278 A;
#X text 183 278 D;
#X text 203 278 S;
#X text 223 278 R;
#X obj 136 46 r A9;
#X obj 176 46 r A10;
#X obj 217 46 r A11;
#X obj 256 46 r A12;
#X connect 0 0 7 0;
#X connect 1 0 8 0;
#X connect 2 0 10 0;
#X connect 3 0 9 0;
#X connect 8 0 6 0;
#X connect 9 0 4 0;
#X connect 10 0 5 0;
#X connect 15 0 0 0;
#X connect 16 0 1 0;
#X connect 17 0 2 0;
#X connect 18 0 3 0;
#X coords 0 -1 1 1 200 200 1 100 100;
#X restore 671 21 pd adsr_;
#N canvas 50 192 1157 617 arduino_c 0;
#X text 11 6 2) Serial connection;
#X msg 402 207 close;
#X msg 23 27 devices;
#X msg 65 128 version;
#N canvas 224 207 546 358 ver 0;
#X obj 250 100 cnv 15 100 60 empty \$0-version_cnv 68 65 77 83 95 48 49 46 105 110 111 2 5 
20 12 0 14 -233017 -66577 0;
#X obj 23 201 send \$0-version_cnv;
#X msg 23 176 label \$1;
#X obj 48 147 symbol;
#X obj 38 121 loadbang;
#X msg 107 120 bang;
#X obj 23 6 receive \$0-arduino-info;
#X obj 104 49 route -1;
#X obj 23 29 route firmware;
#X msg 104 70 connection closed;
#X obj 213 276 print ARDUINO_INFO;
#X obj 157 225 r \$0-arduino-out;
#X obj 213 252 r \$0-arduino-info;
#X obj 157 305 print ARDUINO_OUT;
#X obj 249 54 s connected;
#X obj 23 93 pduino/includes/agop.symbol2list;
#X connect 2 0 1 0;
#X connect 3 0 2 0;
#X connect 4 0 3 0;
#X connect 5 0 3 0;
#X connect 6 0 8 0;
#X connect 7 0 9 0;
#X connect 8 0 14 0;
#X connect 8 0 15 0;
#X connect 8 1 7 0;
#X connect 9 0 15 0;
#X connect 12 0 10 0;
#X connect 15 0 2 0;
#X coords 0 -1 1 1 300 100 2 250 100;
#X restore 145 331 pd ver;
#X text 124 127 <- get protocol version;
#X msg 396 234 firmware;
#X floatatom 35 54 5 0 0 0 - - -;
#X text 91 61 listed by the 'device' message above;
#X text 90 46 enter the number of your serial device;
#X text 73 52 <-;
#X text 76 28 <- list devices -> check the pd-console output!;
#X text 123 152 <- get firmware specification;
#X text 88 79 <- open serial port to Arduino board;
#X text 92 101 <- close the serial port;
#X obj 21 183 cnv 15 98 21 empty empty empty 20 12 0 14 -261234 -66577
0;
#X obj 21 185 send \$0-arduino;
#X obj 660 212 route analog;
#X obj 658 188 cnv 15 140 21 empty empty empty 20 12 0 14 -203904 -66577
0;
#X obj 660 190 receive \$0-arduino-out;
#X text 330 538 <-- COMMAND;
#X obj 214 471 tgl 15 0 empty empty 2 4 -6 1 10 -233017 -1 -1 1 1;
#X obj 229 471 tgl 15 0 empty empty 3 4 -6 1 10 -233017 -1 -1 1 1;
#X obj 244 471 tgl 15 0 empty empty 4 4 -6 1 10 -233017 -1 -1 1 1;
#X obj 259 471 tgl 15 0 empty empty 5 4 -6 1 10 -233017 -1 -1 1 1;
#X obj 184 471 tgl 15 0 empty empty 0 4 -6 1 10 -233017 -1 -1 1 1;
#X obj 199 471 tgl 15 0 empty empty 1 4 -6 1 10 -233017 -1 -1 1 1;
#N canvas 190 217 771 367 analogIns_ 0;
#X obj 30 12 inlet;
#X obj 432 270 outlet;
#X msg 30 34 0 \$1;
#X obj 80 12 inlet;
#X msg 80 34 1 \$1;
#X obj 130 12 inlet;
#X obj 180 12 inlet;
#X obj 230 12 inlet;
#X obj 280 12 inlet;
#X msg 130 34 2 \$1;
#X msg 180 34 3 \$1;
#X msg 230 34 4 \$1;
#X msg 280 34 5 \$1;
#X msg 432 248 set analogIns \$1 \$2 \, bang;
#X obj 320 12 inlet;
#X obj 370 12 inlet;
#X obj 420 12 inlet;
#X obj 470 12 inlet;
#X obj 520 12 inlet;
#X obj 570 12 inlet;
#X msg 320 34 6 \$1;
#X msg 368 33 7 \$1;
#X msg 421 34 8 \$1;
#X msg 470 34 9 \$1;
#X msg 520 34 10 \$1;
#X msg 570 34 11 \$1;
#X obj 610 12 inlet;
#X msg 610 34 12 \$1;
#X obj 650 12 inlet;
#X msg 650 34 13 \$1;
#X obj 690 12 inlet;
#X obj 730 12 inlet;
#X msg 690 34 14 \$1;
#X msg 730 34 15 \$1;
#X obj 770 12 inlet;
#X msg 770 34 16 \$1;
#X connect 0 0 2 0;
#X connect 2 0 13 0;
#X connect 3 0 4 0;
#X connect 4 0 13 0;
#X connect 5 0 9 0;
#X connect 6 0 10 0;
#X connect 7 0 11 0;
#X connect 8 0 12 0;
#X connect 9 0 13 0;
#X connect 10 0 13 0;
#X connect 11 0 13 0;
#X connect 12 0 13 0;
#X connect 13 0 1 0;
#X connect 14 0 20 0;
#X connect 15 0 21 0;
#X connect 16 0 22 0;
#X connect 17 0 23 0;
#X connect 18 0 24 0;
#X connect 19 0 25 0;
#X connect 20 0 13 0;
#X connect 21 0 13 0;
#X connect 22 0 13 0;
#X connect 23 0 13 0;
#X connect 24 0 13 0;
#X connect 25 0 13 0;
#X connect 26 0 27 0;
#X connect 27 0 13 0;
#X connect 28 0 29 0;
#X connect 29 0 13 0;
#X connect 30 0 32 0;
#X connect 31 0 33 0;
#X connect 32 0 13 0;
#X connect 33 0 13 0;
#X connect 34 0 35 0;
#X restore 209 514 pd analogIns_;
#X msg 233 539 analogIns 15 1;
#X obj 231 562 cnv 15 98 21 empty empty empty 20 12 0 14 -261234 -66577
0;
#X obj 233 564 send \$0-arduino;
#X obj 304 471 tgl 15 0 empty empty 8 4 -6 1 10 -233017 -1 -1 1 1;
#X obj 319 471 tgl 15 0 empty empty 9 4 -6 1 10 -233017 -1 -1 1 1;
#X obj 334 471 tgl 15 0 empty empty 10 4 -6 1 10 -233017 -1 -1 1 1
;
#X obj 349 471 tgl 15 0 empty empty 11 4 -6 1 10 -233017 -1 -1 1 1
;
#X obj 274 471 tgl 15 0 empty empty 6 4 -6 1 10 -233017 -1 -1 1 1;
#X obj 289 471 tgl 15 0 empty empty 7 4 -6 1 10 -233017 -1 -1 1 1;
#X obj 364 471 tgl 15 0 empty empty 12 4 -6 1 10 -233017 -1 -1 1 1
;
#X obj 379 471 tgl 15 0 empty empty 13 4 -6 1 10 -233017 -1 -1 1 1
;
#X obj 394 471 tgl 15 0 empty empty 14 4 -6 1 10 -233017 -1 -1 1 1
;
#X obj 679 412 tgl 15 0 empty empty 8 4 -6 1 10 -233017 -1 -1 1 1;
#X obj 694 412 tgl 15 0 empty empty 9 4 -6 1 10 -233017 -1 -1 0 -1
;
#X obj 709 412 tgl 15 0 empty empty 10 0 -6 1 10 -233017 -1 -1 1 1
;
#X text 645 473 <-- COMMAND;
#X msg 559 473 digital 8 1;
#N canvas 101 162 791 311 digital______________________________________
0;
#X obj 32 22 inlet;
#X obj 288 262 outlet;
#X obj 288 235 trigger bang anything;
#X obj 288 214 list trim;
#X obj 288 194 list prepend set digital;
#X msg 32 53 0 \$1;
#X obj 68 22 inlet;
#X msg 68 74 1 \$1;
#X obj 104 22 inlet;
#X obj 140 22 inlet;
#X msg 104 53 2 \$1;
#X msg 140 74 3 \$1;
#X obj 176 22 inlet;
#X obj 212 22 inlet;
#X obj 248 22 inlet;
#X obj 284 22 inlet;
#X msg 176 53 4 \$1;
#X msg 212 74 5 \$1;
#X msg 248 53 6 \$1;
#X msg 284 74 7 \$1;
#X obj 320 22 inlet;
#X obj 356 22 inlet;
#X obj 392 22 inlet;
#X obj 428 22 inlet;
#X obj 464 22 inlet;
#X obj 500 22 inlet;
#X obj 536 22 inlet;
#X obj 572 22 inlet;
#X msg 320 53 8 \$1;
#X msg 356 74 9 \$1;
#X msg 392 53 10 \$1;
#X msg 428 74 11 \$1;
#X msg 464 53 12 \$1;
#X msg 500 74 13 \$1;
#X msg 536 53 14 \$1;
#X msg 572 74 15 \$1;
#X obj 608 22 inlet;
#X obj 644 22 inlet;
#X obj 680 22 inlet;
#X obj 716 22 inlet;
#X msg 608 53 16 \$1;
#X msg 644 74 17 \$1;
#X msg 680 53 18 \$1;
#X msg 716 74 19 \$1;
#X connect 0 0 5 0;
#X connect 2 0 1 0;
#X connect 2 1 1 0;
#X connect 3 0 2 0;
#X connect 4 0 3 0;
#X connect 5 0 4 0;
#X connect 6 0 7 0;
#X connect 7 0 4 0;
#X connect 8 0 10 0;
#X connect 9 0 11 0;
#X connect 10 0 4 0;
#X connect 11 0 4 0;
#X connect 12 0 16 0;
#X connect 13 0 17 0;
#X connect 14 0 18 0;
#X connect 15 0 19 0;
#X connect 16 0 4 0;
#X connect 17 0 4 0;
#X connect 18 0 4 0;
#X connect 19 0 4 0;
#X connect 20 0 28 0;
#X connect 21 0 29 0;
#X connect 22 0 30 0;
#X connect 23 0 31 0;
#X connect 24 0 32 0;
#X connect 25 0 33 0;
#X connect 26 0 34 0;
#X connect 27 0 35 0;
#X connect 28 0 4 0;
#X connect 29 0 4 0;
#X connect 30 0 4 0;
#X connect 31 0 4 0;
#X connect 32 0 4 0;
#X connect 33 0 4 0;
#X connect 34 0 4 0;
#X connect 35 0 4 0;
#X connect 36 0 40 0;
#X connect 37 0 41 0;
#X connect 38 0 42 0;
#X connect 39 0 43 0;
#X connect 40 0 4 0;
#X connect 41 0 4 0;
#X connect 42 0 4 0;
#X connect 43 0 4 0;
#X restore 559 446 pd digital______________________________________
;
#X obj 557 500 cnv 15 98 21 empty empty empty 20 12 0 14 -261234 -66577
0;
#X obj 559 502 send \$0-arduino;
#X obj 562 325 tgl 15 0 empty empty empty 17 7 0 10 -262144 -1 -1 1
1;
#X obj 566 361 - 1;
#X obj 951 123 send \$0-arduino-info;
#X text 977 81 here's our;
#X text 976 93 Arduino object;
#X text 961 89 <-;
#X obj 898 145 cnv 15 122 21 empty empty empty 20 12 0 14 -203904 -66577
0;
#X obj 900 147 send \$0-arduino-out;
#X obj 898 39 cnv 15 116 21 empty empty empty 20 12 0 14 -261234 -66577
0;
#X obj 900 41 receive \$0-arduino;
#X obj 898 88 cnv 15 62 21 empty empty empty 20 12 0 14 -262144 -66577
0;
#X obj 678 342 s A0;
#X obj 678 364 s A1;
#X obj 712 342 s A2;
#X obj 712 342 s A2;
#X obj 713 364 s A3;
#X obj 747 342 s A4;
#X obj 749 363 s A5;
#X obj 782 342 s A6;
#X obj 783 364 s A7;
#X obj 816 342 s A8;
#X obj 816 363 s A9;
#X obj 850 363 s A11;
#X obj 850 342 s A10;
#X obj 891 343 s A12;
#X obj 891 363 s A13;
#X obj 933 343 s A14;
#X obj 794 392 loadbang;
#X msg 748 393 1;
#X obj 541 261 r connected;
#X obj 567 291 t b;
#X obj 410 471 tgl 15 0 empty empty 15 4 -6 1 10 -233017 -1 -1 1 1
;
#X obj 931 363 s A15;
#X obj 676 236 route 0 1 2 3 4 5 6 7 8 9 10 11 12 13 14 15;
#N canvas 376 172 668 357 button 0;
#X obj 379 118 tgl 15 0 empty empty empty 17 7 0 10 -262144 -1 -1 0
1;
#X obj 38 15 r A1;
#X obj 360 70 > 0.72;
#X obj 260 90 > 0.6;
#X obj 300 90 < 0.7;
#X obj 287 149 &&;
#X obj 295 199 tgl 15 0 empty empty empty 17 7 0 10 -262144 -1 -1 0
1;
#X obj 155 101 &&;
#X obj 161 198 tgl 15 0 empty empty empty 17 7 0 10 -262144 -1 -1 0
1;
#X obj 56 182 tgl 15 0 empty empty empty 17 7 0 10 -262144 -1 -1 0
1;
#X obj -13 195 tgl 15 0 empty empty empty 17 7 0 10 -262144 -1 -1 0
1;
#X obj -9 120 < 0.2;
#X obj 131 81 > 0.4;
#X obj 171 81 < 0.6;
#X obj 68 162 &&;
#X obj -15 144 &&;
#X obj -75 297 s revOn;
#X obj 427 236 s distOn;
#X obj 296 287 s granOn;
#X obj 90 123 < 0.35;
#X obj 424 172 select 1;
#X obj 425 213 counter 0 1;
#X obj 424 192 delay 100 1 msec;
#X obj 294 222 select 1;
#X obj 295 263 counter 0 1;
#X obj 294 242 delay 100 1 msec;
#X obj 173 222 select 1;
#X obj 174 263 counter 0 1;
#X obj 173 242 delay 100 1 msec;
#X obj 43 222 select 1;
#X obj 43 252 delay 100 1 msec;
#X obj -77 222 select 1;
#X obj -76 273 counter 0 1;
#X obj -77 252 delay 100 1 msec;
#X obj 45 44 f;
#X obj -65 115 > 0.11;
#X obj 33 120 > 0.21;
#X obj 174 286 s filterOn;
#X obj 42 297 s newM;
#X floatatom 121 303 5 0 0 0 - - -;
#X obj 44 273 counter 0 3;
#X connect 0 0 20 0;
#X connect 1 0 2 0;
#X connect 1 0 34 0;
#X connect 1 0 11 0;
#X connect 1 0 35 0;
#X connect 2 0 0 0;
#X connect 3 0 5 0;
#X connect 4 0 5 1;
#X connect 5 0 6 0;
#X connect 6 0 23 0;
#X connect 7 0 8 0;
#X connect 8 0 26 0;
#X connect 9 0 29 0;
#X connect 10 0 31 0;
#X connect 11 0 15 1;
#X connect 12 0 7 0;
#X connect 13 0 7 1;
#X connect 14 0 9 0;
#X connect 15 0 10 0;
#X connect 19 0 14 1;
#X connect 20 0 22 0;
#X connect 21 0 17 0;
#X connect 22 0 21 0;
#X connect 23 0 25 0;
#X connect 24 0 18 0;
#X connect 25 0 24 0;
#X connect 26 0 28 0;
#X connect 27 0 37 0;
#X connect 28 0 27 0;
#X connect 29 0 30 0;
#X connect 30 0 40 0;
#X connect 31 0 33 0;
#X connect 32 0 16 0;
#X connect 33 0 32 0;
#X connect 34 0 4 0;
#X connect 34 0 3 0;
#X connect 34 0 13 0;
#X connect 34 0 12 0;
#X connect 34 0 36 0;
#X connect 34 0 19 0;
#X connect 35 0 15 0;
#X connect 36 0 14 0;
#X connect 40 0 38 0;
#X connect 40 0 39 0;
#X restore 987 483 pd button;
#X obj 901 89 pduino/arduino 1;
#X msg 401 176 open 0;
#X connect 1 0 16 0;
#X connect 2 0 16 0;
#X connect 3 0 16 0;
#X connect 6 0 16 0;
#X connect 7 0 84 0;
#X connect 17 0 81 0;
#X connect 19 0 17 0;
#X connect 21 0 27 2;
#X connect 22 0 27 3;
#X connect 23 0 27 4;
#X connect 24 0 27 5;
#X connect 25 0 27 0;
#X connect 26 0 27 1;
#X connect 27 0 28 0;
#X connect 28 0 30 0;
#X connect 31 0 27 8;
#X connect 32 0 27 9;
#X connect 33 0 27 10;
#X connect 34 0 27 11;
#X connect 35 0 27 6;
#X connect 36 0 27 7;
#X connect 37 0 27 12;
#X connect 38 0 27 13;
#X connect 39 0 27 14;
#X connect 40 0 45 8;
#X connect 41 0 45 9;
#X connect 42 0 45 10;
#X connect 44 0 47 0;
#X connect 45 0 44 0;
#X connect 48 0 49 0;
#X connect 48 0 40 0;
#X connect 48 0 39 0;
#X connect 48 0 38 0;
#X connect 48 0 37 0;
#X connect 48 0 34 0;
#X connect 48 0 33 0;
#X connect 48 0 32 0;
#X connect 48 0 31 0;
#X connect 48 0 36 0;
#X connect 48 0 35 0;
#X connect 48 0 24 0;
#X connect 48 0 23 0;
#X connect 48 0 22 0;
#X connect 48 0 21 0;
#X connect 48 0 26 0;
#X connect 48 0 25 0;
#X connect 48 0 79 0;
#X connect 49 0 41 0;
#X connect 57 0 83 0;
#X connect 75 0 76 0;
#X connect 76 0 42 0;
#X connect 77 0 78 0;
#X connect 78 0 48 0;
#X connect 79 0 27 15;
#X connect 81 0 59 0;
#X connect 81 1 60 0;
#X connect 81 2 61 0;
#X connect 81 3 63 0;
#X connect 81 4 64 0;
#X connect 81 5 65 0;
#X connect 81 6 66 0;
#X connect 81 7 67 0;
#X connect 81 8 68 0;
#X connect 81 9 69 0;
#X connect 81 10 71 0;
#X connect 81 11 70 0;
#X connect 81 12 72 0;
#X connect 81 13 73 0;
#X connect 81 14 74 0;
#X connect 81 15 80 0;
#X connect 83 0 55 0;
#X connect 83 1 50 0;
#X connect 84 0 16 0;
#X coords 0 -1 1 1 400 200 1 100 300;
#X restore 955 9 pd arduino_c;
#N canvas 0 50 450 250 (subpatch) 0;
#X array left 100 float 5;
#A 0 0 0 0 0 0 0 0 0 0 0 0 0 0 0 0 0 0 0 0 0 0 0 0 0 0 0 0 0 0 0 0
0 0 0 0 0 0 0 0 0 0 0 0 0 0 0 0 0 0 0 0 0 0 0 0 0 0 0 0 0 0 0 0 0 0
0 0 0 0 0 0 0 0 0 0 0 0 0 0 0 0 0 0 0 0 0 0 0 0 0 0 0 0 0 0 0 0 0 0
0;
#X coords 0 1 100 -1 200 140 1;
#X restore 675 249 graph;
#N canvas 0 50 450 250 (subpatch) 0;
#X array right 100 float 5;
#A 0 0 0 0 0 0 0 0 0 0 0 0 0 0 0 0 0 0 0 0 0 0 0 0 0 0 0 0 0 0 0 0
0 0 0 0 0 0 0 0 0 0 0 0 0 0 0 0 0 0 0 0 0 0 0 0 0 0 0 0 0 0 0 0 0 0
0 0 0 0 0 0 0 0 0 0 0 0 0 0 0 0 0 0 0 0 0 0 0 0 0 0 0 0 0 0 0 0 0 0
0;
#X coords 0 1 100 -1 200 140 1;
#X restore 673 414 graph;
#N canvas 0 29 450 300 metronome 0;
#X obj 142 225 s metronome;
#X obj 142 202 expr 60000/$f1;
#X text 144 57 Set metronome;
#X msg 144 140 130;
#X msg 198 140 200;
#X msg 245 139 300;
#X msg 213 112 500;
#X obj 151 81 sel 0 1 2 3;
#X obj 153 16 r newM;
#X obj 343 106 loadbang;
#X connect 1 0 0 0;
#X connect 3 0 1 0;
#X connect 4 0 1 0;
#X connect 5 0 1 0;
#X connect 6 0 1 0;
#X connect 7 0 3 0;
#X connect 7 1 4 0;
#X connect 7 2 5 0;
#X connect 7 3 6 0;
#X connect 8 0 7 0;
#X connect 9 0 3 0;
#X restore 294 362 pd metronome;
#X coords 0 0 1 1 85 60 0;
